<svg width="21" height="20" viewBox="0 0 21 20" fill="none" xmlns="http://www.w3.org/2000/svg">
<g clip-path="url(#clip0_850_8500)">
<path d="M19.4893 3.51058H13.6595V2.82973C13.6595 1.31909 12.4255 0.106323 10.9361 0.106323H9.51058C7.99994 0.106323 6.78717 1.34037 6.78717 2.82973V3.51058H0.93611C0.489302 3.51058 0.106323 3.87228 0.106323 4.34037C0.106323 4.80845 0.468025 5.17015 0.93611 5.17015H2.08505L3.10632 17.468C3.21271 18.8297 4.38292 19.8936 5.74462 19.8936H14.6595C16.0212 19.8936 17.1914 18.8297 17.2978 17.468L18.3191 5.17015H19.468C19.9148 5.17015 20.2978 4.80845 20.2978 4.34037C20.2978 3.87228 19.9574 3.51058 19.4893 3.51058ZM8.42547 2.82973C8.42547 2.23398 8.91483 1.7659 9.51058 1.7659H10.9361C11.5319 1.7659 12.0212 2.25526 12.0212 2.82973V3.51058H8.42547V2.82973ZM15.6595 17.3191C15.617 17.8297 15.1702 18.234 14.6595 18.234H5.7659C5.25526 18.234 4.80845 17.8297 4.7659 17.3191L3.74462 5.17015H16.6595L15.6595 17.3191Z" fill="black"/>
<path d="M8.02119 16.1914C8.468 16.1914 8.85098 15.8297 8.85098 15.3616V8.04243C8.85098 7.59562 8.48928 7.21265 8.02119 7.21265C7.57439 7.21265 7.19141 7.57435 7.19141 8.04243V15.3829C7.19141 15.8297 7.55311 16.1914 8.02119 16.1914Z" fill="black"/>
<path d="M12.4041 16.1914C12.8509 16.1914 13.2339 15.8297 13.2339 15.3616V8.04243C13.2339 7.59562 12.8722 7.21265 12.4041 7.21265C11.9573 7.21265 11.5743 7.57435 11.5743 8.04243V15.3829C11.5956 15.8297 11.9573 16.1914 12.4041 16.1914Z" fill="black"/>
</g>
<defs>
<clipPath id="clip0_850_8500">
<rect width="20.4255" height="20" fill="white"/>
</clipPath>
</defs>
</svg>
