<svg width="70" height="70" viewBox="0 0 70 70" fill="none" xmlns="http://www.w3.org/2000/svg">
   <mask id="mask0_3154_1693" style="mask-type:alpha" maskUnits="userSpaceOnUse" x="0" y="0" width="70" height="70">
      <rect width="70" height="70" fill="#C4C4C4"/>
   </mask>
   <g mask="url(#mask0_3154_1693)">
      <rect x="22.2133" y="-23" width="100" height="30" transform="rotate(45 22.2133 -23)" fill="#EE3643"/>
      <path d="M36.6318 14.0621L37.1763 12.4287L37.1268 12.3792L36.1963 13.6265L32.5829 17.2398L31.296 15.9529L38.2751 8.97373L39.2651 9.96368L38.196 16.2796L37.6614 17.8635L37.7109 17.913L38.6117 16.6953L42.2547 13.0523L43.5417 14.3393L36.5625 21.3184L35.5726 20.3285L36.6318 14.0621ZM46.1461 16.9437L50.2544 21.0519L49.0466 22.2597L46.2946 19.5076L44.681 21.1212L47.1855 23.6258L45.9778 24.8336L43.4732 22.329L41.7804 24.0218L44.582 26.8234L43.3742 28.0311L39.2164 23.8733L46.1461 16.9437ZM50.6634 29.2024L49.5646 30.5586L49.6041 30.5982L50.9901 29.4895L56.0487 26.8463L56.9397 27.7373L54.2569 32.7959L53.168 34.162L53.2076 34.2016L54.6034 33.1028L59.2958 30.0933L60.6718 31.4694L51.782 36.5379L50.8713 35.6272L53.4848 30.5388L54.3757 29.3113L54.3262 29.2618L53.0888 30.1626L48.0202 32.7761L47.06 31.8158L52.1384 22.936L53.6134 24.411L50.6634 29.2024Z" fill="white"/>
   </g>
</svg>
