<svg class="new" width="70" height="70" viewBox="0 0 70 70" aria-hidden="true" focusable="false" fill="none" xmlns="http://www.w3.org/2000/svg">
   <mask id="mask0_2554_573" style="mask-type:alpha" maskUnits="userSpaceOnUse" x="0" y="0" width="70" height="70">
      <rect width="70" height="70" fill="#C4C4C4"/>
   </mask>
   <g mask="url(#mask0_2554_573)">
      <rect x="22.2133" y="-23" width="100" height="30" transform="rotate(45 22.2133 -23)" fill="#EE3643"/>
      <path d="M38.1792 12.6275L38.7237 10.9941L38.6742 10.9446L37.7436 12.1919L34.1303 15.8052L32.8434 14.5183L39.8225 7.53916L40.8125 8.52911L39.7433 14.845L39.2087 16.4289L39.2582 16.4784L40.1591 15.2608L43.8021 11.6178L45.089 12.9047L38.1099 19.8838L37.12 18.8939L38.1792 12.6275ZM47.6934 15.5091L51.8017 19.6174L50.594 20.8251L47.8419 18.0731L46.2283 19.6867L48.7329 22.1912L47.5251 23.399L45.0206 20.8944L43.3278 22.5872L46.1293 25.3888L44.9216 26.5965L40.7638 22.4387L47.6934 15.5091ZM52.2108 27.7678L51.1119 29.124L51.1515 29.1636L52.5374 28.0549L57.5961 25.4117L58.487 26.3027L55.8043 31.3613L54.7153 32.7275L54.7549 32.7671L56.1508 31.6682L60.8431 28.6588L62.2192 30.0348L53.3294 35.1033L52.4186 34.1926L55.0321 29.1042L55.9231 27.8767L55.8736 27.8272L54.6361 28.7281L49.5676 31.3415L48.6073 30.3813L53.6858 21.5014L55.1608 22.9765L52.2108 27.7678Z" fill="white"/>
   </g>
</svg>